<mxfile host="app.diagrams.net" agent="Mozilla/5.0 (Windows NT 10.0; Win64; x64) AppleWebKit/537.36 (KHTML, like Gecko) Chrome/138.0.0.0 Safari/537.36" version="28.0.4">
  <diagram name="Page-1" id="v4HBo7kqC2F28DNwLezU">
    <mxGraphModel dx="2063" dy="623" grid="1" gridSize="10" guides="1" tooltips="1" connect="1" arrows="1" fold="1" page="1" pageScale="1" pageWidth="850" pageHeight="1100" math="0" shadow="0">
      <root>
        <mxCell id="0" />
        <mxCell id="1" parent="0" />
        <mxCell id="rMjF7JMbzA4dHuwk_Ofl-1" value="" style="rounded=0;whiteSpace=wrap;html=1;fillColor=#d5e8d4;gradientColor=#97d077;strokeColor=#82b366;" parent="1" vertex="1">
          <mxGeometry x="240" y="120" width="320" height="190" as="geometry" />
        </mxCell>
        <mxCell id="rMjF7JMbzA4dHuwk_Ofl-2" value="" style="image;sketch=0;aspect=fixed;html=1;points=[];align=center;fontSize=12;image=img/lib/mscae/Docker.svg;" parent="1" vertex="1">
          <mxGeometry x="381.7" y="120" width="36.59" height="30" as="geometry" />
        </mxCell>
        <mxCell id="rMjF7JMbzA4dHuwk_Ofl-3" value="" style="shape=image;html=1;verticalAlign=top;verticalLabelPosition=bottom;labelBackgroundColor=#ffffff;imageAspect=0;aspect=fixed;image=https://icons.diagrams.net/icon-cache1/Unicons_Line_vol_3-2965/docker-1335.svg" parent="1" vertex="1">
          <mxGeometry x="470" y="150" width="60" height="60" as="geometry" />
        </mxCell>
        <mxCell id="rMjF7JMbzA4dHuwk_Ofl-7" style="edgeStyle=orthogonalEdgeStyle;rounded=0;orthogonalLoop=1;jettySize=auto;html=1;" parent="1" source="rMjF7JMbzA4dHuwk_Ofl-4" target="rMjF7JMbzA4dHuwk_Ofl-3" edge="1">
          <mxGeometry relative="1" as="geometry" />
        </mxCell>
        <mxCell id="rMjF7JMbzA4dHuwk_Ofl-10" style="edgeStyle=orthogonalEdgeStyle;rounded=0;orthogonalLoop=1;jettySize=auto;html=1;" parent="1" source="rMjF7JMbzA4dHuwk_Ofl-4" target="rMjF7JMbzA4dHuwk_Ofl-9" edge="1">
          <mxGeometry relative="1" as="geometry" />
        </mxCell>
        <mxCell id="rMjF7JMbzA4dHuwk_Ofl-4" value="host&lt;div&gt;port&lt;/div&gt;" style="rounded=0;whiteSpace=wrap;html=1;fontStyle=1;fillColor=#dae8fc;gradientColor=#7ea6e0;strokeColor=#6c8ebf;" parent="1" vertex="1">
          <mxGeometry x="210" y="165" width="60" height="120" as="geometry" />
        </mxCell>
        <mxCell id="rMjF7JMbzA4dHuwk_Ofl-5" value="" style="verticalLabelPosition=bottom;shadow=0;dashed=0;align=center;html=1;verticalAlign=top;strokeWidth=1;shape=mxgraph.mockup.containers.userMale;strokeColor=#666666;strokeColor2=#008cff;" parent="1" vertex="1">
          <mxGeometry x="-50" y="175" width="100" height="100" as="geometry" />
        </mxCell>
        <mxCell id="rMjF7JMbzA4dHuwk_Ofl-6" style="edgeStyle=orthogonalEdgeStyle;rounded=0;orthogonalLoop=1;jettySize=auto;html=1;" parent="1" source="rMjF7JMbzA4dHuwk_Ofl-5" edge="1">
          <mxGeometry relative="1" as="geometry">
            <mxPoint x="211" y="225" as="targetPoint" />
            <Array as="points">
              <mxPoint x="211" y="225" />
            </Array>
          </mxGeometry>
        </mxCell>
        <mxCell id="rMjF7JMbzA4dHuwk_Ofl-8" value="&lt;b&gt;8080&lt;/b&gt;" style="text;html=1;align=center;verticalAlign=middle;resizable=0;points=[];autosize=1;strokeColor=none;fillColor=none;" parent="1" vertex="1">
          <mxGeometry x="505" y="245" width="50" height="30" as="geometry" />
        </mxCell>
        <mxCell id="rMjF7JMbzA4dHuwk_Ofl-9" value="" style="shape=image;html=1;verticalAlign=top;verticalLabelPosition=bottom;labelBackgroundColor=#ffffff;imageAspect=0;aspect=fixed;image=https://icons.diagrams.net/icon-cache1/Unicons_Line_vol_3-2965/docker-1335.svg" parent="1" vertex="1">
          <mxGeometry x="470" y="225" width="60" height="60" as="geometry" />
        </mxCell>
        <mxCell id="rMjF7JMbzA4dHuwk_Ofl-11" value="&lt;b&gt;80&lt;/b&gt;" style="text;html=1;align=center;verticalAlign=middle;resizable=0;points=[];autosize=1;strokeColor=none;fillColor=none;" parent="1" vertex="1">
          <mxGeometry x="505" y="175" width="40" height="30" as="geometry" />
        </mxCell>
        <mxCell id="PWh459AqEshYOmKEGUC--1" value="" style="rounded=0;whiteSpace=wrap;html=1;" vertex="1" parent="1">
          <mxGeometry x="240" y="410" width="320" height="170" as="geometry" />
        </mxCell>
        <mxCell id="PWh459AqEshYOmKEGUC--2" value="" style="endArrow=none;html=1;rounded=0;exitX=0;exitY=0.75;exitDx=0;exitDy=0;entryX=1;entryY=0.75;entryDx=0;entryDy=0;" edge="1" parent="1" source="PWh459AqEshYOmKEGUC--1" target="PWh459AqEshYOmKEGUC--1">
          <mxGeometry width="50" height="50" relative="1" as="geometry">
            <mxPoint x="390" y="430" as="sourcePoint" />
            <mxPoint x="440" y="380" as="targetPoint" />
          </mxGeometry>
        </mxCell>
        <mxCell id="PWh459AqEshYOmKEGUC--6" style="edgeStyle=orthogonalEdgeStyle;rounded=0;orthogonalLoop=1;jettySize=auto;html=1;" edge="1" parent="1" source="PWh459AqEshYOmKEGUC--3">
          <mxGeometry relative="1" as="geometry">
            <mxPoint x="300" y="540" as="targetPoint" />
          </mxGeometry>
        </mxCell>
        <mxCell id="PWh459AqEshYOmKEGUC--3" value="" style="shape=image;html=1;verticalAlign=top;verticalLabelPosition=bottom;labelBackgroundColor=#ffffff;imageAspect=0;aspect=fixed;image=https://icons.diagrams.net/icon-cache1/Unicons_Line_vol_3-2965/docker-1335.svg" vertex="1" parent="1">
          <mxGeometry x="270" y="420" width="60" height="60" as="geometry" />
        </mxCell>
        <mxCell id="PWh459AqEshYOmKEGUC--7" style="edgeStyle=orthogonalEdgeStyle;rounded=0;orthogonalLoop=1;jettySize=auto;html=1;" edge="1" parent="1" source="PWh459AqEshYOmKEGUC--4">
          <mxGeometry relative="1" as="geometry">
            <mxPoint x="395" y="540" as="targetPoint" />
          </mxGeometry>
        </mxCell>
        <mxCell id="PWh459AqEshYOmKEGUC--4" value="" style="shape=image;html=1;verticalAlign=top;verticalLabelPosition=bottom;labelBackgroundColor=#ffffff;imageAspect=0;aspect=fixed;image=https://icons.diagrams.net/icon-cache1/Unicons_Line_vol_3-2965/docker-1335.svg" vertex="1" parent="1">
          <mxGeometry x="365" y="420" width="60" height="60" as="geometry" />
        </mxCell>
        <mxCell id="PWh459AqEshYOmKEGUC--8" style="edgeStyle=orthogonalEdgeStyle;rounded=0;orthogonalLoop=1;jettySize=auto;html=1;" edge="1" parent="1" source="PWh459AqEshYOmKEGUC--5">
          <mxGeometry relative="1" as="geometry">
            <mxPoint x="500" y="540" as="targetPoint" />
          </mxGeometry>
        </mxCell>
        <mxCell id="PWh459AqEshYOmKEGUC--5" value="" style="shape=image;html=1;verticalAlign=top;verticalLabelPosition=bottom;labelBackgroundColor=#ffffff;imageAspect=0;aspect=fixed;image=https://icons.diagrams.net/icon-cache1/Unicons_Line_vol_3-2965/docker-1335.svg" vertex="1" parent="1">
          <mxGeometry x="470" y="420" width="60" height="60" as="geometry" />
        </mxCell>
      </root>
    </mxGraphModel>
  </diagram>
</mxfile>
